<?xml version="1.0" encoding="UTF-8"?>
<svg version="1.1" xmlns="http://www.w3.org/2000/svg" width="516" height="514">
<path d="M0 0 C79.2 0 158.4 0 240 0 C240 79.2 240 158.4 240 240 C160.8 240 81.6 240 0 240 C0 160.8 0 81.6 0 0 Z" fill="#434343" transform="translate(51,46)"/>

<path d="M0 0 C19.8 0 39.6 0 60 0 C60 19.8 60 39.6 60 60 C40.2 60 20.4 60 0 60 C0 40.2 0 20.4 0 0 Z" fill="#434343" transform="translate(291,166)"/>

<path d="M0 0 C19.8 0 39.6 0 60 0 C60 19.8 60 39.6 60 60 C40.2 60 20.4 60 0 60 C0 40.2 0 20.4 0 0 Z" fill="#434343" transform="translate(171,286)"/>

<path d="M0 0 C19.8 0 39.6 0 60 0 C60 19.8 60 39.6 60 60 C40.2 60 20.4 60 0 60 C0 40.2 0 20.4 0 0 Z" fill="#434343" transform="translate(411,406)"/>
<path d="M0 0 C19.8 0 39.6 0 60 0 C60 19.8 60 39.6 60 60 C40.2 60 20.4 60 0 60 C0 40.2 0 20.4 0 0 Z" fill="#434343" transform="translate(291,406)"/>
<path d="M0 0 C19.8 0 39.6 0 60 0 C60 19.8 60 39.6 60 60 C40.2 60 20.4 60 0 60 C0 40.2 0 20.4 0 0 Z" fill="#434343" transform="translate(171,406)"/>
<path d="M0 0 C19.8 0 39.6 0 60 0 C60 19.8 60 39.6 60 60 C40.2 60 20.4 60 0 60 C0 40.2 0 20.4 0 0 Z" fill="#434343" transform="translate(351,346)"/>
<path d="M0 0 C19.8 0 39.6 0 60 0 C60 19.8 60 39.6 60 60 C40.2 60 20.4 60 0 60 C0 40.2 0 20.4 0 0 Z" fill="#434343" transform="translate(231,346)"/>
<path d="M0 0 C19.8 0 39.6 0 60 0 C60 19.8 60 39.6 60 60 C40.2 60 20.4 60 0 60 C0 40.2 0 20.4 0 0 Z" fill="#434343" transform="translate(411,286)"/>
<path d="M0 0 C19.8 0 39.6 0 60 0 C60 19.8 60 39.6 60 60 C40.2 60 20.4 60 0 60 C0 40.2 0 20.4 0 0 Z" fill="#434343" transform="translate(291,286)"/>
<path d="M0 0 C19.8 0 39.6 0 60 0 C60 19.8 60 39.6 60 60 C40.2 60 20.4 60 0 60 C0 40.2 0 20.4 0 0 Z" fill="#434343" transform="translate(351,226)"/>
<path d="M0 0 C19.8 0 39.6 0 60 0 C60 19.8 60 39.6 60 60 C40.2 60 20.4 60 0 60 C0 40.2 0 20.4 0 0 Z" fill="#434343" transform="translate(411,166)"/>
</svg>